<svg xmlns="http://www.w3.org/2000/svg" viewBox="0 0 1024 1024" role="img" aria-labelledby="title desc">
  <title id="title">MANTA application icon</title>
  <desc id="desc">A white manta ray on black with a subtle human head wearing a dense EEG electrode net.</desc>
  <defs>
    <radialGradient id="ray" cx="50%" cy="38%" r="62%">
      <stop offset="0" stop-color="#fff"/>
      <stop offset=".72" stop-color="#f7f7f8"/>
      <stop offset="1" stop-color="#dedee1"/>
    </radialGradient>
    <linearGradient id="head" x1=".25" y1="0" x2=".8" y2="1">
      <stop offset="0" stop-color="#fff" stop-opacity=".58"/>
      <stop offset=".65" stop-color="#d7d7da" stop-opacity=".34"/>
      <stop offset="1" stop-color="#aaaab0" stop-opacity=".18"/>
    </linearGradient>
    <radialGradient id="node" cx="38%" cy="30%" r="70%">
      <stop offset="0" stop-color="#fafafa"/>
      <stop offset=".35" stop-color="#777"/>
      <stop offset=".7" stop-color="#151515"/>
      <stop offset="1"/>
    </radialGradient>
    <filter id="soft" x="-20%" y="-20%" width="140%" height="140%">
      <feGaussianBlur stdDeviation="2.5"/>
    </filter>
    <filter id="rayShadow" x="-10%" y="-10%" width="120%" height="130%">
      <feDropShadow dx="0" dy="2" stdDeviation="4" flood-color="#fff" flood-opacity=".16"/>
    </filter>
  </defs>

  <rect width="1024" height="1024" fill="#000"/>

  <!-- Flattened manta silhouette with shortened tail. -->
  <path fill="url(#ray)" stroke="#fff" stroke-opacity=".72" stroke-width="3" filter="url(#rayShadow)"
    d="M158 470
       C190 382 255 329 330 271
       C398 218 414 180 425 116
       C430 87 450 72 460 88
       C451 126 447 143 459 151
       C484 171 539 171 565 151
       C577 142 573 126 564 88
       C574 72 594 87 599 116
       C610 180 626 218 694 271
       C769 329 834 382 866 470
       C811 434 756 403 698 414
       C637 425 601 476 572 536
       C564 553 552 565 542 555
       L530 543
       C524 550 523 584 527 622
       C533 684 552 745 523 821
       C517 838 511 850 504 861
       C518 813 525 777 520 741
       C514 697 500 657 497 620
       C494 584 499 551 494 543
       L482 555
       C472 565 460 553 452 536
       C423 476 387 425 326 414
       C268 403 213 434 158 470 Z"/>

  <!-- Barely perceptible face centered on the ray's back and turned left. -->
  <g transform="rotate(-15 502 358)" opacity=".62">
    <path fill="url(#head)" d="M445 303
      C452 259 487 235 530 245
      C572 255 596 292 590 338
      C586 371 568 397 546 420
      C526 440 492 437 475 413
      C464 397 461 379 451 366
      C438 349 438 326 445 303 Z"/>
    <path fill="none" stroke="#8e8e93" stroke-opacity=".3" stroke-width="3"
      d="M468 333 Q483 326 495 334 M525 332 Q542 325 555 334
         M511 338 Q503 356 506 369 Q511 375 520 370
         M491 394 Q512 403 532 392"/>
    <path fill="none" stroke="#9a9aa0" stroke-opacity=".22" stroke-width="4"
      d="M456 341 Q445 337 446 350 Q449 365 461 369"/>
  </g>

  <!-- EEG net: dark embossed wiring with a dense array of electrodes. -->
  <g transform="rotate(-15 510 310)" fill="none" stroke-linecap="round" stroke-linejoin="round">
    <g stroke="#080808" stroke-width="10" opacity=".92">
      <path d="M420 331 Q431 273 471 235 Q514 205 557 229 Q590 250 605 299 Q612 336 591 377"/>
      <path d="M438 289 Q481 273 526 279 Q568 284 600 311"/>
      <path d="M429 318 Q474 305 519 311 Q565 316 604 344"/>
      <path d="M425 348 Q469 337 513 345 Q558 352 591 377"/>
      <path d="M457 255 Q452 301 451 348"/>
      <path d="M486 231 Q480 276 477 337"/>
      <path d="M520 219 Q519 264 510 345"/>
      <path d="M551 225 Q554 278 543 353"/>
      <path d="M578 247 Q590 290 575 366"/>
      <path d="M451 348 Q436 365 441 384 M543 353 Q556 371 550 394 M575 366 Q588 381 579 402"/>
    </g>
    <g stroke="#7d7d82" stroke-width="3" opacity=".9">
      <path d="M420 331 Q431 273 471 235 Q514 205 557 229 Q590 250 605 299 Q612 336 591 377"/>
      <path d="M438 289 Q481 273 526 279 Q568 284 600 311"/>
      <path d="M429 318 Q474 305 519 311 Q565 316 604 344"/>
      <path d="M425 348 Q469 337 513 345 Q558 352 591 377"/>
      <path d="M457 255 Q452 301 451 348 M486 231 Q480 276 477 337
               M520 219 Q519 264 510 345 M551 225 Q554 278 543 353
               M578 247 Q590 290 575 366"/>
      <path d="M451 348 Q436 365 441 384 M543 353 Q556 371 550 394 M575 366 Q588 381 579 402"/>
    </g>
    <g fill="url(#node)" stroke="#050505" stroke-width="3">
      <circle cx="471" cy="235" r="9"/><circle cx="486" cy="231" r="9"/>
      <circle cx="520" cy="219" r="9"/><circle cx="551" cy="225" r="9"/>
      <circle cx="438" cy="289" r="9"/><circle cx="457" cy="255" r="9"/>
      <circle cx="478" cy="276" r="9"/><circle cx="519" cy="264" r="9"/>
      <circle cx="554" cy="278" r="9"/><circle cx="578" cy="247" r="9"/>
      <circle cx="600" cy="311" r="9"/><circle cx="420" cy="331" r="9"/>
      <circle cx="429" cy="318" r="9"/><circle cx="451" cy="305" r="9"/>
      <circle cx="477" cy="305" r="9"/><circle cx="510" cy="311" r="9"/>
      <circle cx="543" cy="314" r="9"/><circle cx="578" cy="326" r="9"/>
      <circle cx="604" cy="344" r="9"/><circle cx="425" cy="348" r="9"/>
      <circle cx="451" cy="348" r="9"/><circle cx="477" cy="337" r="9"/>
      <circle cx="510" cy="345" r="9"/><circle cx="543" cy="353" r="9"/>
      <circle cx="575" cy="366" r="9"/><circle cx="591" cy="377" r="9"/>
      <circle cx="441" cy="384" r="9"/><circle cx="550" cy="394" r="9"/>
      <circle cx="579" cy="402" r="9"/>
    </g>
  </g>
</svg>
